<?xml version="1.0" standalone="no"?>
<!DOCTYPE svg PUBLIC "-//W3C//DTD SVG 20010904//EN"
 "http://www.w3.org/TR/2001/REC-SVG-20010904/DTD/svg10.dtd">
<svg version="1.0" xmlns="http://www.w3.org/2000/svg"
 width="1000.000000pt" height="300.000000pt" viewBox="0 0 1000.000000 300.000000"
 preserveAspectRatio="xMidYMid meet">

<g transform="translate(0.000000,300.000000) scale(0.100000,-0.100000)"
fill="#000000" stroke="none">
<path d="M548 2539 c-12 -36 -20 -43 -72 -64 -55 -22 -61 -23 -88 -9 -37 19
-59 12 -97 -32 l-31 -35 19 -37 c19 -36 19 -38 0 -72 -10 -19 -18 -43 -19 -53
0 -11 -16 -25 -45 -37 l-45 -19 0 -54 c0 -58 7 -68 53 -83 22 -7 33 -22 51
-65 23 -56 23 -57 4 -93 l-19 -36 40 -42 39 -43 43 16 c42 15 45 15 100 -10
43 -19 60 -32 64 -51 10 -40 25 -50 74 -50 55 0 65 6 78 44 10 31 13 34 82 65
39 18 46 19 72 6 41 -22 51 -19 93 23 l37 39 -17 35 c-15 33 -15 38 6 95 20
55 25 61 61 72 l39 12 0 60 0 61 -39 15 c-35 14 -42 22 -61 76 -21 57 -21 62
-6 95 l17 35 -37 39 c-42 42 -52 45 -94 23 -21 -11 -35 -12 -47 -5 -10 5 -35
16 -55 24 -29 11 -42 24 -54 55 l-16 41 -58 0 -58 0 -14 -41z m210 -140 c66
-33 109 -77 145 -149 17 -35 22 -63 22 -125 0 -69 -4 -88 -30 -138 -34 -68
-79 -111 -152 -144 -51 -23 -153 -36 -168 -21 -11 11 54 94 95 123 48 34 75
72 109 154 21 52 25 73 18 87 -16 29 -29 34 -51 18 -22 -15 -103 -19 -123 -6
-7 4 -18 37 -25 74 -11 58 -14 65 -29 57 -10 -5 -21 -18 -24 -29 -7 -23 -25
-27 -25 -5 0 29 -16 15 -31 -27 -10 -26 -25 -48 -40 -54 -48 -23 -120 -54
-124 -54 -12 0 -2 50 19 96 30 64 79 114 147 148 43 21 67 26 129 26 66 0 86
-4 138 -31z"/>
<path d="M1522 2539 c-15 -34 -26 -44 -73 -63 -51 -21 -58 -21 -87 -7 -27 12
-35 13 -58 1 -14 -8 -35 -27 -46 -43 -19 -27 -20 -30 -4 -65 16 -35 16 -39 -4
-77 -11 -21 -20 -45 -20 -53 0 -7 -18 -21 -39 -29 -45 -18 -57 -46 -46 -107 6
-29 13 -37 41 -46 27 -9 38 -22 59 -68 26 -56 26 -57 9 -95 l-18 -38 42 -41
41 -42 38 18 c37 16 40 16 80 -4 23 -11 47 -20 53 -20 6 0 18 -17 27 -37 19
-47 28 -53 78 -53 50 0 64 9 73 46 6 23 21 35 67 58 57 27 61 28 88 12 41 -23
48 -21 92 24 l39 40 -17 36 c-17 34 -17 38 5 94 20 51 28 60 61 71 l37 12 0
63 c0 62 0 62 -35 74 -28 9 -39 22 -60 68 -25 56 -26 57 -9 95 l17 38 -38 39
c-42 43 -56 47 -94 26 -20 -11 -31 -10 -79 10 -48 19 -59 29 -74 63 -17 41
-17 41 -73 41 -56 0 -56 0 -73 -41z m205 -135 c67 -32 136 -109 159 -176 25
-75 16 -179 -22 -247 -41 -77 -116 -136 -196 -156 -28 -7 -28 -7 -27 46 1 139
15 165 111 211 79 37 87 88 18 103 -16 4 -46 18 -67 32 -21 14 -50 30 -65 35
-28 10 -37 31 -18 43 6 3 10 14 10 23 0 13 -6 11 -25 -11 -26 -28 -45 -35 -45
-17 0 6 -4 10 -10 10 -5 0 -15 -27 -22 -60 -8 -42 -20 -68 -40 -87 -30 -29
-178 -104 -190 -96 -14 8 -8 128 8 176 19 56 81 129 139 163 84 49 189 52 282
8z"/>
<path d="M2437 2086 c-104 -29 -177 -128 -177 -240 0 -89 16 -135 64 -182 67
-67 166 -88 296 -61 l55 12 3 128 3 127 -91 0 -90 0 0 -35 c0 -35 0 -35 45
-35 l45 0 0 -64 c0 -71 -5 -76 -69 -76 -96 0 -171 81 -171 184 0 129 98 205
231 178 59 -11 63 -10 73 29 4 20 1 29 -12 34 -35 14 -158 15 -205 1z"/>
<path d="M3723 2089 c-43 -13 -91 -63 -99 -104 -14 -74 22 -123 122 -166 63
-26 94 -56 94 -89 0 -57 -70 -82 -155 -56 -27 8 -51 14 -52 12 -2 -2 -6 -19
-10 -39 l-5 -35 57 -12 c145 -30 265 42 251 153 -7 58 -31 85 -108 122 -39 19
-79 42 -89 51 -27 24 -24 59 9 84 22 18 35 21 75 16 26 -4 54 -9 62 -12 10 -4
17 5 23 28 8 32 7 33 -27 45 -43 14 -104 15 -148 2z"/>
<path d="M9372 2081 c-103 -36 -162 -123 -162 -240 0 -108 40 -180 122 -222
50 -25 150 -35 206 -20 42 12 43 13 37 44 -4 18 -8 33 -9 34 -1 1 -18 -3 -38
-9 -81 -24 -176 14 -208 85 -40 86 -14 206 52 247 43 26 111 35 156 22 20 -6
37 -10 39 -8 1 1 6 16 9 33 6 30 4 32 -32 42 -56 16 -111 13 -172 -8z"/>
<path d="M2760 1845 l0 -245 145 0 145 0 0 35 0 35 -100 0 -100 0 0 75 0 75
90 0 90 0 0 35 0 35 -90 0 -90 0 0 65 0 65 95 0 95 0 0 35 0 35 -140 0 -140 0
0 -245z"/>
<path d="M3140 1846 l0 -246 40 0 40 0 0 193 0 192 53 -100 c30 -55 78 -140
108 -190 l55 -90 47 -3 47 -3 0 245 0 246 -41 0 -40 0 3 -185 c2 -102 2 -185
1 -185 -2 0 -21 35 -42 78 -22 42 -68 124 -103 182 l-64 105 -52 3 -52 3 0
-245z"/>
<path d="M4125 2078 c-3 -7 -32 -98 -65 -203 -33 -104 -67 -209 -75 -232 l-14
-43 45 0 c27 0 46 5 49 13 2 6 11 38 20 70 l17 58 81 -3 81 -3 20 -67 21 -68
46 0 47 0 -23 73 c-13 39 -49 150 -80 245 l-56 172 -55 0 c-35 0 -56 -5 -59
-12z m65 -81 c0 -7 11 -48 25 -91 14 -43 25 -82 25 -87 0 -4 -27 -9 -60 -11
-33 -1 -60 -1 -60 2 0 3 11 41 25 85 14 44 25 88 25 98 0 9 5 17 10 17 6 0 10
-6 10 -13z"/>
<path d="M4470 1846 l0 -246 40 0 40 0 0 193 0 192 35 -66 c19 -37 67 -122
108 -190 l74 -124 46 -3 47 -3 0 245 0 246 -41 0 -40 0 3 -185 c2 -102 2 -185
0 -185 -1 0 -16 28 -32 63 -17 34 -63 116 -103 182 l-73 120 -52 3 -52 3 0
-245z"/>
<path d="M5110 1845 l0 -245 45 0 45 0 0 105 0 105 90 0 90 0 0 35 0 35 -90 0
-90 0 0 70 0 70 95 0 95 0 0 35 0 35 -140 0 -140 0 0 -245z"/>
<path d="M5480 1845 l0 -245 145 0 145 0 0 35 0 35 -100 0 -100 0 0 75 0 75
90 0 90 0 0 36 0 35 -90 -3 -90 -3 0 70 0 70 95 -3 95 -3 0 35 0 36 -140 0
-140 0 0 -245z"/>
<path d="M5852 1848 l3 -243 140 0 140 0 0 30 0 30 -98 0 -97 0 0 77 0 77 88
3 87 3 3 33 3 33 -93 -2 c-51 -1 -92 1 -90 5 1 3 2 33 2 66 l0 60 95 0 95 0 0
35 0 35 -140 0 -140 0 2 -242z"/>
<path d="M6278 2083 l-48 -4 0 -240 0 -239 48 -2 c108 -5 216 8 206 24 -4 7
-2 8 4 4 6 -4 22 -2 34 5 167 86 162 360 -7 428 -52 21 -156 31 -237 24z m196
-77 c18 -7 44 -29 57 -47 20 -29 24 -46 24 -109 0 -133 -54 -190 -178 -190
l-57 0 0 180 0 180 60 0 c33 0 76 -6 94 -14z"/>
<path d="M6746 2058 c-3 -18 -10 -118 -16 -223 -6 -104 -13 -200 -16 -213 -4
-21 -2 -23 33 -20 l38 3 7 85 c4 47 11 139 15 205 l8 120 18 -70 c10 -38 36
-130 59 -202 l41 -133 32 0 31 0 65 199 64 198 6 -56 c4 -31 7 -92 8 -136 1
-44 4 -110 8 -147 l6 -68 39 0 39 0 -6 73 c-6 79 -25 384 -25 404 0 9 -17 13
-54 13 l-54 0 -50 -152 c-27 -84 -53 -168 -57 -185 -4 -18 -10 -33 -14 -33 -4
0 -15 33 -25 74 -9 41 -34 123 -54 182 l-37 109 -52 3 c-52 3 -52 3 -57 -30z"/>
<path d="M7327 2084 c-4 -4 -7 -115 -7 -246 l0 -238 45 0 45 0 -2 243 -3 242
-35 3 c-20 2 -39 0 -43 -4z"/>
<path d="M7510 1845 l0 -245 145 0 145 0 0 35 0 35 -100 0 -100 0 0 210 0 210
-45 0 -45 0 0 -245z"/>
<path d="M7877 2083 c-4 -3 -7 -114 -7 -245 l0 -238 145 0 145 0 0 35 0 35
-100 0 -100 0 0 210 0 210 -38 0 c-21 0 -42 -3 -45 -7z"/>
<path d="M8550 1845 l0 -245 45 0 45 0 0 245 0 245 -45 0 -45 0 0 -245z"/>
<path d="M8740 1846 l0 -246 40 0 40 0 0 193 0 192 53 -100 c30 -55 78 -140
108 -190 l55 -90 47 -3 47 -3 0 245 0 246 -41 0 -40 0 3 -185 c2 -102 2 -185
1 -185 -2 0 -21 35 -42 78 -22 42 -68 124 -103 182 l-64 105 -52 3 -52 3 0
-245z"/>
<path d="M884 1700 c-27 -9 -63 -24 -80 -33 -31 -16 -31 -16 -21 -66 l10 -50
-72 -72 -71 -72 -58 2 -58 2 -21 -48 c-48 -111 -48 -101 -1 -143 l43 -38 1
-96 1 -97 -44 -36 c-48 -40 -48 -38 -6 -135 l26 -58 60 0 59 0 66 -67 c60 -59
66 -70 64 -102 -2 -20 -5 -43 -8 -52 -5 -20 37 -47 110 -72 46 -16 50 -16 62
1 45 64 48 65 150 65 l96 0 41 -41 42 -40 51 18 c93 32 101 42 96 107 -4 45
-1 59 13 69 9 7 14 17 10 23 -3 6 0 9 8 5 9 -3 30 13 55 41 40 45 42 46 95 44
29 -1 58 0 63 4 6 3 23 38 39 78 l28 71 -43 37 -43 37 0 97 0 96 42 38 42 38
-20 57 c-35 100 -35 101 -99 96 l-56 -5 -69 70 -68 69 6 53 7 54 -42 21 c-24
12 -60 28 -81 35 l-38 14 -45 -52 c-38 -45 -46 -49 -60 -38 -12 10 -36 12 -89
8 l-72 -6 -36 43 -36 44 -49 -18z m389 -181 c106 -43 189 -123 243 -235 32
-68 38 -91 42 -166 8 -152 -42 -277 -151 -379 -26 -23 -33 -18 -41 28 -8 52
-48 133 -106 220 -28 40 -50 76 -50 81 0 5 -7 15 -15 22 -8 7 -12 17 -8 24 4
6 6 20 4 30 -2 15 2 18 18 13 31 -8 38 13 12 34 -23 19 -21 39 5 39 11 0 12 4
4 19 -7 13 -7 22 0 26 27 16 -7 105 -40 105 -7 0 -9 8 -5 20 7 23 -10 28 -19
5 -10 -27 -34 -17 -29 13 4 26 4 26 -12 7 -16 -19 -17 -19 -30 -2 -9 13 -15
15 -20 7 -4 -7 -19 -10 -36 -6 -21 4 -27 2 -23 -8 3 -8 -2 -16 -13 -18 -14 -3
-10 -9 20 -27 20 -13 37 -24 37 -25 0 -1 -18 -22 -41 -46 -43 -47 -105 -138
-119 -174 -4 -12 -13 -70 -19 -130 -13 -120 -25 -154 -70 -205 -30 -34 -31
-34 -51 -16 -34 31 -88 135 -106 205 -43 168 28 365 171 477 134 105 288 126
448 62z"/>
<path d="M8278 1712 c-32 -3 -39 -8 -44 -30 -3 -15 -14 -56 -25 -92 -10 -35
-17 -66 -15 -68 2 -1 16 0 30 4 19 4 34 20 50 53 27 53 49 118 44 129 -2 4
-20 6 -40 4z"/>
<path d="M9667 1682 c-10 -10 -17 -26 -17 -35 0 -21 35 -57 55 -57 21 0 55 36
55 59 0 46 -62 67 -93 33z"/>
<path d="M4680 1470 l0 -30 1766 0 1765 0 -3 28 -3 27 -1762 3 -1763 2 0 -30z"/>
<path d="M3572 1282 c-120 -66 -99 -271 31 -297 18 -4 58 -15 90 -26 71 -24
73 -24 80 1 4 16 -1 21 -29 26 -19 3 -34 9 -34 11 0 3 13 20 29 39 58 65 47
186 -20 237 -38 27 -106 32 -147 9z m124 -57 c41 -62 22 -175 -32 -196 -37
-13 -80 5 -99 42 -29 55 -14 142 29 171 6 4 28 8 48 8 29 0 41 -6 54 -25z"/>
<path d="M3920 1208 c1 -114 11 -164 43 -195 32 -33 93 -40 140 -18 51 24 67
71 67 200 l0 105 -30 0 -30 0 0 -113 c0 -132 -10 -157 -65 -157 -55 0 -65 25
-65 157 l0 113 -30 0 -30 0 0 -92z"/>
<path d="M4355 1213 c-16 -49 -38 -121 -51 -160 l-22 -73 29 0 c26 0 30 5 40
45 l11 45 54 0 54 0 12 -45 c11 -40 15 -45 40 -45 15 0 28 3 28 8 0 4 -21 76
-47 159 l-48 153 -36 0 -37 0 -27 -87z m68 -101 c-19 -2 -37 -1 -39 1 -3 3 3
35 13 73 l17 69 22 -70 22 -70 -35 -3z"/>
<path d="M4680 1140 l0 -160 95 0 c95 0 95 0 95 25 0 24 -2 25 -65 25 l-65 0
0 135 0 135 -30 0 -30 0 0 -160z"/>
<path d="M5000 1140 l0 -160 30 0 30 0 0 160 0 160 -30 0 -30 0 0 -160z"/>
<path d="M5182 1278 c2 -19 10 -24 46 -26 l42 -3 0 -135 0 -134 30 0 30 0 0
135 0 135 45 0 c41 0 45 2 45 25 l0 25 -121 0 c-119 0 -120 0 -117 -22z"/>
<path d="M5530 1294 c0 -3 20 -43 45 -88 41 -76 45 -89 45 -155 l0 -71 30 0
30 0 0 73 c0 40 4 77 9 83 4 5 27 44 50 87 l42 77 -29 0 c-27 0 -33 -7 -64
-72 l-34 -73 -34 73 c-30 65 -36 72 -61 72 -16 0 -29 -3 -29 -6z"/>
<path d="M6144 1293 c-33 -6 -67 -49 -67 -83 0 -38 19 -58 86 -90 54 -26 68
-49 46 -77 -10 -11 -27 -14 -71 -11 -43 3 -59 1 -63 -10 -8 -22 2 -30 49 -37
86 -13 151 27 149 93 -1 42 -32 73 -93 91 -43 13 -60 42 -39 67 9 11 27 14 63
13 45 -3 51 -1 54 18 4 27 -47 39 -114 26z"/>
<path d="M6410 1140 l0 -160 95 0 c95 0 95 0 95 25 0 24 -2 25 -65 25 l-65 0
0 45 0 45 60 0 c58 0 60 1 60 26 0 25 -1 26 -60 22 l-60 -3 0 43 0 42 60 0
c57 0 60 1 60 25 0 25 -1 25 -90 25 l-90 0 0 -160z"/>
<path d="M6758 1293 c-16 -4 -18 -20 -18 -159 l0 -154 30 0 30 0 0 65 c0 65 0
65 29 65 36 0 47 -14 67 -79 13 -46 18 -51 43 -51 l29 0 -18 61 c-10 34 -26
69 -34 78 -14 15 -13 18 5 29 56 35 39 123 -28 141 -38 11 -103 13 -135 4z
m120 -49 c46 -32 13 -94 -50 -94 -27 0 -28 2 -28 55 0 53 1 55 28 55 15 0 38
-7 50 -16z"/>
<path d="M7070 1289 c0 -6 16 -58 35 -117 18 -59 40 -126 47 -149 12 -39 16
-43 45 -43 18 0 33 1 33 3 0 2 25 74 55 160 l55 157 -30 0 c-29 0 -30 -3 -65
-112 -19 -61 -35 -117 -35 -125 0 -7 -3 -13 -7 -13 -5 0 -21 46 -36 101 -40
144 -43 149 -72 149 -14 0 -25 -5 -25 -11z"/>
<path d="M7460 1140 l0 -160 30 0 30 0 0 160 0 160 -30 0 -30 0 0 -160z"/>
<path d="M7755 1285 c-86 -30 -125 -120 -90 -210 9 -25 26 -52 38 -60 58 -41
187 -44 187 -4 0 16 -7 19 -56 19 -30 0 -64 5 -75 10 -56 30 -65 144 -14 188
23 19 37 23 84 21 50 -3 56 -1 59 18 5 34 -61 43 -133 18z"/>
<path d="M8020 1140 l0 -160 95 0 c95 0 95 0 95 25 0 24 -2 25 -65 25 l-65 0
0 45 0 45 60 0 c57 0 60 1 60 25 0 24 -3 25 -60 25 l-60 0 0 40 0 40 60 0 c57
0 60 1 60 25 0 25 -1 25 -90 25 l-90 0 0 -160z"/>
<path d="M8414 1293 c-33 -6 -67 -49 -67 -83 0 -38 19 -58 86 -90 54 -26 68
-49 46 -77 -10 -11 -27 -14 -71 -11 -44 3 -59 1 -63 -11 -10 -25 13 -35 74
-36 67 0 108 22 123 67 16 46 -6 76 -77 109 -44 21 -65 37 -65 49 0 29 26 42
77 39 42 -3 48 -1 51 17 4 28 -47 40 -114 27z"/>
</g>
</svg>
